<svg width="80" height="30" viewBox="0 0 80 30" fill="none" xmlns="http://www.w3.org/2000/svg">
<path d="M0 15.0421C0 12.177 0.637072 9.60674 1.91122 7.33146C3.18536 5.02809 4.91653 3.23034 7.10474 1.9382C9.32064 0.646067 11.772 0 14.4588 0C17.6164 0 20.3724 0.772472 22.7268 2.31742C25.0812 3.86236 26.7986 6.05337 27.8788 8.89045H23.3501C22.5468 7.12079 21.3835 5.75843 19.86 4.80337C18.3643 3.84831 16.5639 3.37079 14.4588 3.37079C12.4367 3.37079 10.6225 3.84831 9.01595 4.80337C7.40942 5.75843 6.14913 7.12079 5.23507 8.89045C4.32101 10.632 3.86398 12.6826 3.86398 15.0421C3.86398 17.3736 4.32101 19.4242 5.23507 21.1938C6.14913 22.9354 7.40942 24.2837 9.01595 25.2388C10.6225 26.1938 12.4367 26.6713 14.4588 26.6713C16.5639 26.6713 18.3643 26.2079 19.86 25.2809C21.3835 24.3258 22.5468 22.9635 23.3501 21.1938H27.8788C26.7986 24.0028 25.0812 26.1798 22.7268 27.7247C20.3724 29.2416 17.6164 30 14.4588 30C11.772 30 9.32064 29.368 7.10474 28.1039C4.91653 26.8118 3.18536 25.0281 1.91122 22.7528C0.637072 20.4775 0 17.9073 0 15.0421Z" fill="#0057FF"/>
<path d="M49.6692 0.379214V3.49719H41.775V29.7472H37.9942V3.49719H30.0585V0.379214H49.6692Z" fill="#0057FF"/>
<path d="M74.5987 8.89045C73.7955 7.17697 72.6321 5.85674 71.1087 4.92977C69.5853 3.97472 67.8125 3.49719 65.7905 3.49719C63.7685 3.49719 61.9404 3.97472 60.3062 4.92977C58.6996 5.85674 57.4255 7.20505 56.4837 8.97472C55.5697 10.7163 55.1127 12.7388 55.1127 15.0421C55.1127 17.3455 55.5697 19.368 56.4837 21.1096C57.4255 22.8511 58.6996 24.1994 60.3062 25.1545C61.9404 26.0815 63.7685 26.5449 65.7905 26.5449C68.6158 26.5449 70.9425 25.6882 72.7706 23.9747C74.5987 22.2612 75.6651 19.9438 75.9698 17.0225H64.4194V13.9045H80V16.8539C79.7784 19.2697 79.0305 21.4888 77.7564 23.5112C76.4823 25.5056 74.8065 27.0927 72.7291 28.2725C70.6517 29.4242 68.3388 30 65.7905 30C63.1037 30 60.6524 29.368 58.4365 28.1039C56.2206 26.8118 54.4617 25.0281 53.1599 22.7528C51.8857 20.4775 51.2487 17.9073 51.2487 15.0421C51.2487 12.177 51.8857 9.60674 53.1599 7.33146C54.4617 5.02809 56.2206 3.24438 58.4365 1.98034C60.6524 0.688202 63.1037 0.0421343 65.7905 0.0421343C68.8651 0.0421343 71.5796 0.814606 73.934 2.35955C76.3161 3.90449 78.0472 6.08146 79.1275 8.89045H74.5987Z" fill="#0057FF"/>
</svg>
