<svg width="262" height="26" viewBox="0 0 262 26" fill="none" xmlns="http://www.w3.org/2000/svg">
<path d="M21.5568 9.875H16.5795C16.4886 9.23106 16.303 8.65909 16.0227 8.15909C15.7424 7.65151 15.3826 7.2197 14.9432 6.86364C14.5038 6.50757 13.9962 6.23485 13.4205 6.04545C12.8523 5.85606 12.2348 5.76136 11.5682 5.76136C10.3636 5.76136 9.31439 6.06061 8.42045 6.65909C7.52652 7.25 6.83333 8.11364 6.34091 9.25C5.84849 10.3788 5.60227 11.75 5.60227 13.3636C5.60227 15.0227 5.84849 16.4167 6.34091 17.5455C6.84091 18.6742 7.53788 19.5265 8.43182 20.1023C9.32576 20.678 10.3598 20.9659 11.5341 20.9659C12.1932 20.9659 12.803 20.8788 13.3636 20.7045C13.9318 20.5303 14.4356 20.2765 14.875 19.9432C15.3144 19.6023 15.678 19.1894 15.9659 18.7045C16.2614 18.2197 16.4659 17.6667 16.5795 17.0455L21.5568 17.0682C21.428 18.1364 21.1061 19.1667 20.5909 20.1591C20.0833 21.1439 19.3977 22.0265 18.5341 22.8068C17.678 23.5795 16.6553 24.1932 15.4659 24.6477C14.2841 25.0947 12.947 25.3182 11.4545 25.3182C9.37879 25.3182 7.52273 24.8485 5.88636 23.9091C4.25758 22.9697 2.9697 21.6098 2.02273 19.8295C1.08333 18.0492 0.613636 15.8939 0.613636 13.3636C0.613636 10.8258 1.09091 8.66667 2.04545 6.88636C3 5.10606 4.29545 3.75 5.93182 2.81818C7.56818 1.87879 9.40909 1.40909 11.4545 1.40909C12.803 1.40909 14.053 1.59848 15.2045 1.97727C16.3636 2.35606 17.3902 2.90909 18.2841 3.63636C19.178 4.35606 19.9053 5.23864 20.4659 6.28409C21.0341 7.32954 21.3977 8.52651 21.5568 9.875ZM29.9716 25.3295C28.858 25.3295 27.8655 25.1364 26.9943 24.75C26.1231 24.3561 25.4337 23.7765 24.9261 23.0114C24.4261 22.2386 24.1761 21.2765 24.1761 20.125C24.1761 19.1553 24.3542 18.3409 24.7102 17.6818C25.0663 17.0227 25.5511 16.4924 26.1648 16.0909C26.7784 15.6894 27.4754 15.3864 28.2557 15.1818C29.0436 14.9773 29.8693 14.8333 30.733 14.75C31.7481 14.6439 32.5663 14.5455 33.1875 14.4545C33.8087 14.3561 34.2595 14.2121 34.5398 14.0227C34.8201 13.8333 34.9602 13.553 34.9602 13.1818V13.1136C34.9602 12.3939 34.733 11.8371 34.2784 11.4432C33.8314 11.0492 33.1951 10.8523 32.3693 10.8523C31.4981 10.8523 30.8049 11.0455 30.2898 11.4318C29.7746 11.8106 29.4337 12.2879 29.267 12.8636L24.7898 12.5C25.017 11.4394 25.464 10.5227 26.1307 9.75C26.7973 8.9697 27.6572 8.37121 28.7102 7.95454C29.7708 7.5303 30.9981 7.31818 32.392 7.31818C33.3617 7.31818 34.2898 7.43182 35.1761 7.65909C36.0701 7.88636 36.8617 8.23864 37.5511 8.71591C38.2481 9.19318 38.7973 9.80682 39.1989 10.5568C39.6004 11.2992 39.8011 12.1894 39.8011 13.2273V25H35.2102V22.5795H35.0739C34.7936 23.125 34.4186 23.6061 33.9489 24.0227C33.4792 24.4318 32.9148 24.7538 32.2557 24.9886C31.5966 25.2159 30.8352 25.3295 29.9716 25.3295ZM31.358 21.9886C32.0701 21.9886 32.6989 21.8485 33.2443 21.5682C33.7898 21.2803 34.2178 20.8939 34.5284 20.4091C34.839 19.9242 34.9943 19.375 34.9943 18.7614V16.9091C34.8428 17.0076 34.6345 17.0985 34.3693 17.1818C34.1117 17.2576 33.8201 17.3295 33.4943 17.3977C33.1686 17.4583 32.8428 17.5152 32.517 17.5682C32.1913 17.6136 31.8958 17.6553 31.6307 17.6932C31.0625 17.7765 30.5663 17.9091 30.142 18.0909C29.7178 18.2727 29.3883 18.5189 29.1534 18.8295C28.9186 19.1326 28.8011 19.5114 28.8011 19.9659C28.8011 20.625 29.0398 21.1288 29.517 21.4773C30.0019 21.8182 30.6155 21.9886 31.358 21.9886ZM48.3977 1.72727V25H43.5568V1.72727H48.3977ZM60.1619 25.3409C58.3741 25.3409 56.8362 24.9621 55.5483 24.2045C54.268 23.4394 53.2831 22.3788 52.5938 21.0227C51.9119 19.6667 51.571 18.1061 51.571 16.3409C51.571 14.553 51.9157 12.9848 52.6051 11.6364C53.3021 10.2803 54.2907 9.22348 55.571 8.46591C56.8513 7.70076 58.3741 7.31818 60.1392 7.31818C61.6619 7.31818 62.9953 7.5947 64.1392 8.14773C65.2831 8.70076 66.1884 9.47727 66.8551 10.4773C67.5218 11.4773 67.8892 12.6515 67.9574 14H63.3892C63.2604 13.1288 62.9195 12.428 62.3665 11.8977C61.821 11.3598 61.1051 11.0909 60.2188 11.0909C59.4688 11.0909 58.8134 11.2955 58.2528 11.7045C57.6998 12.1061 57.268 12.6932 56.9574 13.4659C56.6468 14.2386 56.4915 15.1742 56.4915 16.2727C56.4915 17.3864 56.643 18.3333 56.946 19.1136C57.2566 19.8939 57.6922 20.4886 58.2528 20.8977C58.8134 21.3068 59.4688 21.5114 60.2188 21.5114C60.7718 21.5114 61.268 21.3977 61.7074 21.1705C62.1544 20.9432 62.5218 20.6136 62.8097 20.1818C63.1051 19.7424 63.2983 19.2159 63.3892 18.6023H67.9574C67.8816 19.9356 67.518 21.1098 66.8665 22.125C66.2225 23.1326 65.3324 23.9205 64.196 24.4886C63.0597 25.0568 61.715 25.3409 60.1619 25.3409ZM82.25 17.5682V7.54545H87.0909V25H82.4432V21.8295H82.2614C81.8674 22.8523 81.2121 23.6742 80.2955 24.2955C79.3864 24.9167 78.2765 25.2273 76.9659 25.2273C75.7992 25.2273 74.7727 24.9621 73.8864 24.4318C73 23.9015 72.3068 23.1477 71.8068 22.1705C71.3144 21.1932 71.0644 20.0227 71.0568 18.6591V7.54545H75.8977V17.7955C75.9053 18.8258 76.1818 19.6402 76.7273 20.2386C77.2727 20.8371 78.0038 21.1364 78.9205 21.1364C79.5038 21.1364 80.0492 21.0038 80.5568 20.7386C81.0644 20.4659 81.4735 20.0644 81.7841 19.5341C82.1023 19.0038 82.2576 18.3485 82.25 17.5682ZM100.247 7.54545V11.1818H89.7358V7.54545H100.247ZM92.1222 3.36364H96.9631V19.6364C96.9631 20.0833 97.0313 20.4318 97.1676 20.6818C97.304 20.9242 97.4934 21.0947 97.7358 21.1932C97.9858 21.2917 98.2737 21.3409 98.5994 21.3409C98.8267 21.3409 99.054 21.322 99.2812 21.2841C99.5085 21.2386 99.6828 21.2045 99.804 21.1818L100.565 24.7841C100.323 24.8598 99.982 24.947 99.5426 25.0455C99.1032 25.1515 98.5691 25.2159 97.9403 25.2386C96.7737 25.2841 95.7509 25.1288 94.8722 24.7727C94.0009 24.4167 93.3229 23.8636 92.8381 23.1136C92.3532 22.3636 92.1146 21.4167 92.1222 20.2727V3.36364ZM112.685 7.54545V11.1818H102.173V7.54545H112.685ZM104.56 3.36364H109.401V19.6364C109.401 20.0833 109.469 20.4318 109.605 20.6818C109.741 20.9242 109.931 21.0947 110.173 21.1932C110.423 21.2917 110.711 21.3409 111.037 21.3409C111.264 21.3409 111.491 21.322 111.719 21.2841C111.946 21.2386 112.12 21.2045 112.241 21.1818L113.003 24.7841C112.76 24.8598 112.42 24.947 111.98 25.0455C111.541 25.1515 111.007 25.2159 110.378 25.2386C109.211 25.2841 108.188 25.1288 107.31 24.7727C106.438 24.4167 105.76 23.8636 105.276 23.1136C104.791 22.3636 104.552 21.4167 104.56 20.2727V3.36364ZM120.815 25.3295C119.702 25.3295 118.709 25.1364 117.838 24.75C116.967 24.3561 116.277 23.7765 115.77 23.0114C115.27 22.2386 115.02 21.2765 115.02 20.125C115.02 19.1553 115.198 18.3409 115.554 17.6818C115.91 17.0227 116.395 16.4924 117.009 16.0909C117.622 15.6894 118.319 15.3864 119.099 15.1818C119.887 14.9773 120.713 14.8333 121.577 14.75C122.592 14.6439 123.41 14.5455 124.031 14.4545C124.652 14.3561 125.103 14.2121 125.384 14.0227C125.664 13.8333 125.804 13.553 125.804 13.1818V13.1136C125.804 12.3939 125.577 11.8371 125.122 11.4432C124.675 11.0492 124.039 10.8523 123.213 10.8523C122.342 10.8523 121.649 11.0455 121.134 11.4318C120.618 11.8106 120.277 12.2879 120.111 12.8636L115.634 12.5C115.861 11.4394 116.308 10.5227 116.974 9.75C117.641 8.9697 118.501 8.37121 119.554 7.95454C120.615 7.5303 121.842 7.31818 123.236 7.31818C124.205 7.31818 125.134 7.43182 126.02 7.65909C126.914 7.88636 127.705 8.23864 128.395 8.71591C129.092 9.19318 129.641 9.80682 130.043 10.5568C130.444 11.2992 130.645 12.1894 130.645 13.2273V25H126.054V22.5795H125.918C125.637 23.125 125.262 23.6061 124.793 24.0227C124.323 24.4318 123.759 24.7538 123.099 24.9886C122.44 25.2159 121.679 25.3295 120.815 25.3295ZM122.202 21.9886C122.914 21.9886 123.543 21.8485 124.088 21.5682C124.634 21.2803 125.062 20.8939 125.372 20.4091C125.683 19.9242 125.838 19.375 125.838 18.7614V16.9091C125.687 17.0076 125.478 17.0985 125.213 17.1818C124.955 17.2576 124.664 17.3295 124.338 17.3977C124.012 17.4583 123.687 17.5152 123.361 17.5682C123.035 17.6136 122.74 17.6553 122.474 17.6932C121.906 17.7765 121.41 17.9091 120.986 18.0909C120.562 18.2727 120.232 18.5189 119.997 18.8295C119.762 19.1326 119.645 19.5114 119.645 19.9659C119.645 20.625 119.884 21.1288 120.361 21.4773C120.846 21.8182 121.459 21.9886 122.202 21.9886ZM145.909 25H140.636L148.67 1.72727H155.011L163.034 25H157.761L151.932 7.04545H151.75L145.909 25ZM145.58 15.8523H158.034V19.6932H145.58V15.8523ZM176.938 17.5682V7.54545H181.778V25H177.131V21.8295H176.949C176.555 22.8523 175.9 23.6742 174.983 24.2955C174.074 24.9167 172.964 25.2273 171.653 25.2273C170.487 25.2273 169.46 24.9621 168.574 24.4318C167.688 23.9015 166.994 23.1477 166.494 22.1705C166.002 21.1932 165.752 20.0227 165.744 18.6591V7.54545H170.585V17.7955C170.593 18.8258 170.869 19.6402 171.415 20.2386C171.96 20.8371 172.691 21.1364 173.608 21.1364C174.191 21.1364 174.737 21.0038 175.244 20.7386C175.752 20.4659 176.161 20.0644 176.472 19.5341C176.79 19.0038 176.945 18.3485 176.938 17.5682ZM193.537 25.3409C191.749 25.3409 190.211 24.9621 188.923 24.2045C187.643 23.4394 186.658 22.3788 185.969 21.0227C185.287 19.6667 184.946 18.1061 184.946 16.3409C184.946 14.553 185.291 12.9848 185.98 11.6364C186.677 10.2803 187.666 9.22348 188.946 8.46591C190.226 7.70076 191.749 7.31818 193.514 7.31818C195.037 7.31818 196.37 7.5947 197.514 8.14773C198.658 8.70076 199.563 9.47727 200.23 10.4773C200.897 11.4773 201.264 12.6515 201.332 14H196.764C196.635 13.1288 196.295 12.428 195.741 11.8977C195.196 11.3598 194.48 11.0909 193.594 11.0909C192.844 11.0909 192.188 11.2955 191.628 11.7045C191.075 12.1061 190.643 12.6932 190.332 13.4659C190.022 14.2386 189.866 15.1742 189.866 16.2727C189.866 17.3864 190.018 18.3333 190.321 19.1136C190.632 19.8939 191.067 20.4886 191.628 20.8977C192.188 21.3068 192.844 21.5114 193.594 21.5114C194.147 21.5114 194.643 21.3977 195.082 21.1705C195.529 20.9432 195.897 20.6136 196.185 20.1818C196.48 19.7424 196.673 19.2159 196.764 18.6023H201.332C201.257 19.9356 200.893 21.1098 200.241 22.125C199.598 23.1326 198.707 23.9205 197.571 24.4886C196.435 25.0568 195.09 25.3409 193.537 25.3409ZM213.716 7.54545V11.1818H203.205V7.54545H213.716ZM205.591 3.36364H210.432V19.6364C210.432 20.0833 210.5 20.4318 210.636 20.6818C210.773 20.9242 210.962 21.0947 211.205 21.1932C211.455 21.2917 211.742 21.3409 212.068 21.3409C212.295 21.3409 212.523 21.322 212.75 21.2841C212.977 21.2386 213.152 21.2045 213.273 21.1818L214.034 24.7841C213.792 24.8598 213.451 24.947 213.011 25.0455C212.572 25.1515 212.038 25.2159 211.409 25.2386C210.242 25.2841 209.22 25.1288 208.341 24.7727C207.47 24.4167 206.792 23.8636 206.307 23.1136C205.822 22.3636 205.583 21.4167 205.591 20.2727V3.36364ZM216.869 25V7.54545H221.71V25H216.869ZM219.301 5.29545C218.581 5.29545 217.964 5.05682 217.449 4.57954C216.941 4.0947 216.688 3.51515 216.688 2.84091C216.688 2.17424 216.941 1.60227 217.449 1.125C217.964 0.640151 218.581 0.397726 219.301 0.397726C220.021 0.397726 220.634 0.640151 221.142 1.125C221.657 1.60227 221.915 2.17424 221.915 2.84091C221.915 3.51515 221.657 4.0947 221.142 4.57954C220.634 5.05682 220.021 5.29545 219.301 5.29545ZM233.474 25.3409C231.709 25.3409 230.183 24.9659 228.895 24.2159C227.615 23.4583 226.626 22.4053 225.929 21.0568C225.232 19.7008 224.884 18.1288 224.884 16.3409C224.884 14.5379 225.232 12.9621 225.929 11.6136C226.626 10.2576 227.615 9.20454 228.895 8.45454C230.183 7.69697 231.709 7.31818 233.474 7.31818C235.24 7.31818 236.762 7.69697 238.043 8.45454C239.33 9.20454 240.323 10.2576 241.02 11.6136C241.717 12.9621 242.065 14.5379 242.065 16.3409C242.065 18.1288 241.717 19.7008 241.02 21.0568C240.323 22.4053 239.33 23.4583 238.043 24.2159C236.762 24.9659 235.24 25.3409 233.474 25.3409ZM233.497 21.5909C234.3 21.5909 234.971 21.3636 235.509 20.9091C236.046 20.447 236.452 19.8182 236.724 19.0227C237.005 18.2273 237.145 17.322 237.145 16.3068C237.145 15.2917 237.005 14.3864 236.724 13.5909C236.452 12.7955 236.046 12.1667 235.509 11.7045C234.971 11.2424 234.3 11.0114 233.497 11.0114C232.687 11.0114 232.005 11.2424 231.452 11.7045C230.906 12.1667 230.493 12.7955 230.213 13.5909C229.94 14.3864 229.804 15.2917 229.804 16.3068C229.804 17.322 229.94 18.2273 230.213 19.0227C230.493 19.8182 230.906 20.447 231.452 20.9091C232.005 21.3636 232.687 21.5909 233.497 21.5909ZM250.054 14.9091V25H245.213V7.54545H249.827V10.625H250.031C250.418 9.60985 251.065 8.80682 251.974 8.21591C252.884 7.61742 253.986 7.31818 255.281 7.31818C256.493 7.31818 257.55 7.58333 258.452 8.11364C259.353 8.64394 260.054 9.40151 260.554 10.3864C261.054 11.3636 261.304 12.5303 261.304 13.8864V25H256.463V14.75C256.471 13.6818 256.198 12.8485 255.645 12.25C255.092 11.6439 254.33 11.3409 253.361 11.3409C252.709 11.3409 252.134 11.4811 251.634 11.7614C251.141 12.0417 250.755 12.4508 250.474 12.9886C250.202 13.5189 250.062 14.1591 250.054 14.9091Z" fill="#EB7D07"/>
</svg>
